<svg xmlns="http://www.w3.org/2000/svg" width="742" height="336" viewBox="0 0 742 336">
<g>
<path d="M 223.27 306.64 L 218.03 310.00 L 175.77 309.98 C134.19,309.97 133.44,309.93 130.00,307.80 C128.07,306.61 117.72,300.01 107.00,293.12 C96.28,286.24 81.92,277.11 75.09,272.83 L 62.68 265.04 L 59.34 257.94 C57.50,254.04 56.00,250.66 56.00,250.43 C56.00,250.20 54.39,246.52 52.41,242.25 C50.44,237.99 47.78,232.02 46.50,229.00 C45.23,225.98 40.76,216.36 36.58,207.62 C32.40,198.89 28.72,190.74 28.41,189.51 C28.11,188.29 28.37,183.73 29.00,179.39 C29.64,175.05 30.53,168.80 31.00,165.50 C31.46,162.20 32.81,152.98 33.99,145.00 C35.17,137.02 36.97,124.79 37.99,117.81 L 39.83 105.13 L 49.15 94.31 C54.28,88.37 63.65,77.61 69.99,70.42 C76.32,63.23 84.43,53.95 88.00,49.81 L 94.50 42.29 L 104.00 39.50 C109.22,37.97 115.53,36.14 118.00,35.45 C120.47,34.75 127.68,32.60 134.00,30.67 C154.54,24.41 173.80,19.00 175.56,19.00 C176.51,19.00 180.48,19.91 184.39,21.02 C188.30,22.13 193.07,23.48 195.00,24.01 C196.93,24.55 201.43,25.86 205.00,26.92 C208.57,27.99 216.23,30.27 222.00,32.00 C227.77,33.72 233.62,35.50 235.00,35.96 C236.38,36.42 240.88,37.77 245.00,38.96 C249.12,40.16 253.67,41.58 255.11,42.13 C257.48,43.03 270.80,57.89 294.38,85.94 C299.27,91.75 305.11,98.42 307.36,100.77 L 311.46 105.05 L 316.18 137.77 C318.78,155.77 321.43,174.55 322.07,179.50 L 323.24 188.50 L 318.52 199.00 C315.93,204.77 312.63,211.98 311.19,215.00 C309.76,218.02 304.04,230.40 298.49,242.50 L 288.40 264.50 L 276.37 272.50 C269.75,276.90 260.10,283.18 254.92,286.45 C246.12,292.01 235.66,298.68 223.27,306.64 ZM 163.00 244.11 C167.96,245.25 188.53,244.30 194.56,242.66 C201.52,240.76 211.52,236.25 217.45,232.32 C224.11,227.92 236.22,215.87 240.55,209.37 C255.03,187.54 257.08,157.65 245.68,134.50 C235.02,112.86 215.11,96.83 192.98,92.09 C179.99,89.30 170.64,89.60 153.48,93.35 C148.56,94.43 138.48,99.22 132.03,103.55 C120.59,111.23 111.90,121.19 106.16,133.22 C99.79,146.56 98.49,152.54 98.53,168.50 C98.55,179.36 98.94,182.65 100.87,188.50 C110.70,218.22 131.53,236.87 163.00,244.11 Z" fill="rgb(13,0,81)"/>
<path d="M 393.10 129.28 C379.46,133.68 363.77,128.84 358.19,118.50 C353.90,110.55 352.57,97.86 355.21,90.07 C358.12,81.47 364.21,75.21 371.88,72.96 C387.63,68.32 402.52,73.60 408.19,85.84 C411.50,93.00 411.86,105.71 408.96,113.50 C406.09,121.21 400.33,126.94 393.10,129.28 ZM 470.39 262.25 L 470.33 273.50 L 464.00 274.13 L 464.00 246.19 C464.00,230.82 463.72,216.84 463.38,215.12 C462.77,212.08 462.85,212.00 466.38,212.00 C469.51,212.00 470.00,212.32 470.00,214.33 C470.00,217.89 470.79,217.99 474.14,214.87 C477.18,212.03 480.16,211.35 487.50,211.83 C492.66,212.16 495.61,213.97 498.10,218.31 C500.24,222.04 500.50,223.71 500.50,233.57 C500.50,243.19 500.20,245.22 498.17,249.17 C495.41,254.54 491.06,257.00 484.35,257.00 C479.93,257.00 472.00,253.67 472.00,251.82 C472.00,251.37 471.65,251.00 471.22,251.00 C470.79,251.00 470.42,256.06 470.39,262.25 ZM 379.50 124.56 C381.60,125.36 390.63,123.80 393.50,122.13 C395.14,121.18 397.50,118.84 398.73,116.95 C399.96,115.05 401.37,113.01 401.87,112.41 C402.37,111.81 402.71,106.83 402.64,101.33 C402.51,92.09 402.28,90.98 399.50,86.53 C395.50,80.11 391.35,78.00 382.73,78.00 C368.56,78.00 361.77,85.58 361.83,101.35 C361.85,106.80 362.40,109.87 363.87,112.75 C366.31,117.53 372.05,122.75 375.77,123.57 C377.27,123.90 378.95,124.35 379.50,124.56 ZM 605.71 127.36 C602.51,129.94 600.97,130.44 595.71,130.62 C587.39,130.90 585.91,130.47 581.19,126.43 C575.76,121.78 573.59,115.28 574.22,105.53 C574.77,96.84 577.83,90.58 583.00,87.55 C585.69,85.98 588.24,85.50 594.00,85.50 C603.35,85.50 607.50,87.61 610.80,94.02 C612.84,97.98 613.07,99.66 612.80,108.50 C612.44,119.89 611.33,122.85 605.71,127.36 ZM 440.97 129.01 C437.35,130.86 432.54,131.32 427.30,130.30 C426.09,130.07 423.72,128.31 422.05,126.40 C416.01,119.52 418.96,108.09 427.54,105.14 C429.72,104.39 435.33,103.49 440.00,103.14 L 448.50 102.50 L 448.22 99.02 C448.06,97.11 447.26,94.52 446.44,93.27 C445.15,91.31 444.10,91.00 438.63,91.00 C432.18,91.00 430.17,92.04 428.73,96.14 C428.28,97.41 427.41,97.63 424.90,97.11 C423.11,96.75 421.49,95.98 421.30,95.41 C420.58,93.25 427.44,86.89 431.50,85.96 C441.44,83.69 451.33,86.24 454.03,91.76 C454.86,93.46 455.58,100.10 455.93,109.29 C456.51,124.32 456.98,125.94 460.75,125.98 C462.77,126.01 462.18,129.72 460.07,130.27 C456.19,131.29 451.60,129.55 450.02,126.46 C449.18,124.83 448.38,123.30 448.23,123.06 C448.08,122.82 447.26,123.61 446.41,124.82 C445.56,126.04 443.12,127.92 440.97,129.01 ZM 439.93 252.57 C436.22,256.19 435.55,256.45 429.23,256.70 C425.53,256.85 421.56,256.49 420.42,255.91 C417.70,254.52 415.25,250.26 414.99,246.50 C414.53,239.63 415.04,237.76 418.31,234.49 C421.77,231.03 422.73,230.78 437.32,229.45 L 444.15 228.83 L 443.50 224.66 C442.63,219.13 440.00,217.00 434.02,217.00 C428.98,217.00 424.00,219.79 424.00,222.62 C424.00,223.77 423.19,223.94 420.25,223.41 C418.19,223.04 416.42,222.67 416.31,222.60 C415.49,221.99 419.88,215.51 422.24,213.83 C426.49,210.80 439.98,210.61 444.91,213.51 C449.77,216.36 450.83,220.27 450.92,235.60 C451.00,249.39 451.39,250.59 456.25,252.32 C458.43,253.09 458.53,255.58 456.42,256.39 C451.38,258.33 445.70,255.92 444.56,251.38 L 443.89 248.70 ZM 571.49 256.01 C568.35,257.20 560.33,257.21 557.39,256.02 C553.20,254.33 551.00,250.16 551.00,243.94 C551.00,239.19 551.46,237.61 553.56,235.11 C556.41,231.72 561.22,230.02 568.00,229.99 C570.47,229.99 574.24,229.69 576.36,229.34 L 580.22 228.70 L 579.67 224.61 C578.96,219.30 576.14,217.00 570.32,217.00 C564.91,217.00 562.21,218.32 560.97,221.58 C560.18,223.65 559.58,223.94 557.27,223.39 C553.03,222.39 552.33,221.29 554.02,218.26 C556.67,213.56 561.24,211.71 570.35,211.66 C584.70,211.58 587.00,214.79 587.00,234.97 C587.00,248.78 587.23,249.51 592.52,252.56 C595.53,254.31 593.68,257.00 589.47,257.00 C584.60,257.00 582.42,255.65 581.09,251.82 L 579.96 248.59 L 577.03 251.80 C575.42,253.57 572.93,255.46 571.49,256.01 ZM 694.83 130.38 C678.58,133.63 668.00,124.65 668.00,107.60 C668.00,101.68 668.50,99.37 670.75,94.95 C674.46,87.65 678.27,85.50 687.50,85.50 C696.13,85.50 700.87,87.62 703.73,92.79 C706.08,97.01 708.47,107.43 707.47,109.05 C707.03,109.76 701.62,110.05 691.65,109.91 L 676.50 109.70 L 676.23 113.10 C675.65,120.32 683.41,126.88 690.90,125.49 C692.77,125.14 695.64,123.51 697.28,121.88 C699.69,119.46 700.80,119.02 703.13,119.53 C704.71,119.88 706.00,120.76 706.00,121.50 C706.00,123.56 698.29,129.69 694.83,130.38 ZM 392.73 255.47 C388.88,257.08 377.45,257.42 372.99,256.07 C358.95,251.79 351.59,237.00 354.95,219.78 C356.53,211.69 359.29,206.85 364.40,203.18 C369.57,199.47 374.76,198.01 382.88,198.01 C391.69,198.00 396.69,199.74 401.71,204.55 C406.92,209.53 407.32,212.55 402.93,213.52 C401.24,213.89 399.75,214.04 399.63,213.85 C399.50,213.66 398.60,212.22 397.62,210.67 C395.42,207.16 388.81,204.05 383.50,204.03 C369.84,203.97 362.00,212.33 362.00,226.96 C362.00,237.19 365.67,244.26 372.89,247.94 C382.19,252.69 389.77,251.42 397.08,243.92 C401.53,239.35 402.07,239.07 404.44,240.15 C407.50,241.55 407.51,241.65 405.08,245.63 C402.81,249.36 397.79,253.35 392.73,255.47 ZM 476.00 122.17 L 476.00 130.00 L 468.00 130.00 L 468.00 69.00 L 475.96 69.00 L 476.50 106.31 L 485.45 96.41 C494.05,86.91 494.57,86.52 498.74,86.38 C503.06,86.25 503.08,86.26 501.33,88.37 C500.37,89.54 496.44,93.75 492.60,97.71 L 485.62 104.93 L 494.81 116.92 C499.87,123.51 504.00,129.15 504.00,129.45 C504.00,129.75 502.20,130.00 500.01,130.00 C496.54,130.00 495.65,129.50 493.26,126.22 C491.74,124.13 488.29,119.62 485.59,116.19 L 480.67 109.96 L 478.34 112.15 C476.27,114.09 476.00,115.27 476.00,122.17 ZM 631.50 96.83 L 630.50 129.50 L 627.46 129.80 C625.79,129.96 624.11,129.77 623.71,129.38 C623.32,128.99 623.00,119.16 623.00,107.53 L 623.00 86.40 L 626.50 86.40 C629.67,86.40 630.00,86.67 630.00,89.20 C630.00,90.74 630.18,92.00 630.39,92.00 C630.61,92.00 632.22,90.66 633.97,89.03 C639.35,84.00 650.06,83.61 654.72,88.27 C658.18,91.72 658.95,96.44 658.98,114.25 L 659.00 130.00 L 651.00 130.00 L 651.00 112.50 C651.00,96.33 650.85,94.85 649.00,93.00 C645.81,89.81 638.87,90.26 634.77,93.91 ZM 536.41 128.96 C532.16,131.10 520.30,131.39 516.01,129.46 C508.53,126.11 505.55,120.65 510.52,119.41 C512.45,118.92 513.48,119.34 514.98,121.25 C521.26,129.23 540.04,124.98 536.16,116.45 C534.88,113.65 531.60,112.01 521.34,109.06 C512.64,106.55 509.00,103.00 509.00,97.00 C509.00,87.85 520.76,82.59 533.38,86.09 C540.50,88.06 544.83,95.03 539.77,96.35 C538.12,96.78 536.82,96.16 534.82,93.97 C532.41,91.33 531.47,91.00 526.28,91.00 C519.62,91.00 516.00,92.90 516.00,96.40 C516.00,99.80 519.07,101.98 526.69,104.01 C530.43,105.00 534.62,106.26 536.00,106.80 C545.63,110.60 545.88,124.20 536.41,128.96 ZM 588.19 123.97 C592.15,126.39 595.08,126.53 599.03,124.48 C603.04,122.41 605.22,117.74 605.76,110.01 C606.32,102.06 604.85,96.14 601.52,93.01 C599.51,91.13 597.99,90.68 593.89,90.78 C585.33,90.97 582.00,95.64 582.00,107.48 C582.00,116.64 583.73,121.26 588.19,123.97 ZM 479.39 251.35 C482.40,251.99 487.06,251.20 488.81,249.74 C491.59,247.44 493.00,242.14 493.00,234.00 C493.00,220.64 489.92,216.30 481.14,217.29 C473.06,218.20 470.13,224.55 471.26,238.68 C471.69,243.98 472.28,245.69 474.53,248.03 C476.04,249.61 478.23,251.10 479.39,251.35 ZM 568.42 130.39 C567.55,130.73 565.64,130.96 564.17,130.90 C554.39,130.53 553.00,127.54 553.00,106.75 L 553.00 91.00 L 550.50 91.00 C548.52,91.00 548.00,90.50 548.00,88.57 C548.00,86.65 548.59,86.06 550.75,85.82 C553.10,85.55 553.66,84.84 554.58,81.00 C555.48,77.23 556.08,76.45 558.27,76.19 C560.74,75.90 560.90,76.15 561.19,80.69 C561.50,85.46 561.53,85.50 565.25,85.81 C568.47,86.08 569.00,86.46 569.00,88.56 C569.00,90.74 568.57,91.00 565.00,91.00 L 561.00 91.00 L 561.00 106.96 C561.00,121.73 561.15,123.01 562.93,123.96 C564.00,124.53 566.02,125.00 567.43,125.00 C569.47,125.00 570.00,125.49 570.00,127.39 C570.00,128.71 569.29,130.06 568.42,130.39 ZM 545.83 253.62 C545.52,256.33 545.19,256.52 540.42,256.80 C536.55,257.02 534.76,256.62 532.92,255.14 C530.55,253.22 530.49,252.81 530.19,235.65 C529.88,218.50 529.83,218.12 527.69,217.81 C526.14,217.59 525.41,216.69 525.18,214.75 C524.91,212.37 525.22,212.00 527.46,212.00 C530.23,212.00 530.50,211.59 531.47,205.75 C531.99,202.63 532.49,202.00 534.49,202.00 C536.64,202.00 536.92,202.49 537.20,206.75 C537.50,211.45 537.54,211.50 541.25,211.81 C544.66,212.09 545.00,212.39 545.00,215.06 C545.00,217.82 544.76,218.00 541.00,218.00 L 537.00 218.00 L 537.00 232.85 C537.00,246.01 537.22,247.94 538.90,249.89 C540.36,251.57 541.44,251.93 543.48,251.41 C545.96,250.79 546.13,250.95 545.83,253.62 ZM 607.03 196.00 L 606.50 256.50 L 603.99 256.79 C599.11,257.36 599.00,256.67 599.00,225.30 L 599.00 196.00 ZM 517.77 234.25 L 517.50 256.50 L 515.00 256.69 L 514.88 256.70 C513.56,256.80 512.60,256.88 511.90,256.49 C510.00,255.43 510.00,250.97 510.00,234.48 L 510.00 212.00 L 518.04 212.00 ZM 430.38 124.09 C434.10,126.36 435.08,126.42 439.28,124.63 C443.46,122.85 446.46,119.43 447.97,114.71 C450.01,108.34 449.13,107.61 440.30,108.36 C431.97,109.06 428.44,110.72 426.95,114.62 C425.54,118.33 426.85,121.94 430.38,124.09 ZM 427.50 251.26 C432.04,252.30 438.78,249.51 441.42,245.48 C442.36,244.04 443.22,240.98 443.32,238.68 L 443.50 234.50 L 436.00 234.86 C424.85,235.41 422.00,237.35 422.00,244.43 C422.00,247.86 424.10,250.47 427.50,251.26 ZM 562.85 250.87 C566.56,252.23 566.98,252.19 571.67,250.06 C576.75,247.76 579.09,244.41 579.75,238.49 L 580.26 234.00 L 572.38 234.60 C563.65,235.26 560.17,236.98 558.71,241.36 C557.48,245.07 559.46,249.63 562.85,250.87 ZM 676.00 101.45 L 676.00 104.00 L 688.00 104.00 C701.06,104.00 701.21,103.92 698.81,98.30 C696.46,92.78 694.04,91.00 688.89,91.00 C686.27,91.00 683.00,91.43 681.61,91.96 C678.74,93.05 676.00,97.69 676.00,101.45 ZM 517.81 199.25 C517.54,202.05 517.08,202.54 514.46,202.80 C510.76,203.16 510.00,202.49 510.00,198.83 C510.00,196.19 510.27,196.00 514.06,196.00 C518.05,196.00 518.12,196.07 517.81,199.25 Z" fill="rgb(78,68,134)"/>
<path d="M 0.00 168.00 L 0.00 0.00 L 371.00 0.00 L 742.00 0.00 L 742.00 168.00 L 742.00 336.00 L 371.00 336.00 L 0.00 336.00 L 0.00 168.00 ZM 223.27 306.64 C235.66,298.68 246.12,292.01 254.92,286.45 C260.10,283.18 269.75,276.90 276.37,272.50 L 288.40 264.50 L 298.49 242.50 C304.04,230.40 309.76,218.02 311.19,215.00 C312.63,211.98 315.93,204.77 318.52,199.00 L 323.24 188.50 L 322.07 179.50 C321.43,174.55 318.78,155.77 316.18,137.77 L 311.46 105.05 L 307.36 100.77 C305.11,98.42 299.27,91.75 294.38,85.94 C270.80,57.89 257.48,43.03 255.11,42.13 C253.67,41.58 249.12,40.16 245.00,38.96 C240.88,37.77 236.38,36.42 235.00,35.96 C233.62,35.50 227.77,33.72 222.00,32.00 C216.23,30.27 208.57,27.99 205.00,26.92 C201.43,25.86 196.93,24.55 195.00,24.01 C193.07,23.48 188.30,22.13 184.39,21.02 C180.48,19.91 176.51,19.00 175.56,19.00 C173.80,19.00 154.54,24.41 134.00,30.67 C127.68,32.60 120.47,34.75 118.00,35.45 C115.53,36.14 109.22,37.97 104.00,39.50 L 94.50 42.29 L 88.00 49.81 C84.43,53.95 76.32,63.23 69.99,70.42 C63.65,77.61 54.28,88.37 49.15,94.31 L 39.83 105.13 L 37.99 117.81 C36.97,124.79 35.17,137.02 33.99,145.00 C32.81,152.98 31.46,162.20 31.00,165.50 C30.53,168.80 29.64,175.05 29.00,179.39 C28.37,183.73 28.11,188.29 28.41,189.51 C28.72,190.74 32.40,198.89 36.58,207.62 C40.76,216.36 45.23,225.98 46.50,229.00 C47.78,232.02 50.44,237.99 52.41,242.25 C54.39,246.52 56.00,250.20 56.00,250.43 C56.00,250.66 57.50,254.04 59.34,257.94 L 62.68 265.04 L 75.09 272.83 C81.92,277.11 96.28,286.24 107.00,293.12 C117.72,300.01 128.07,306.61 130.00,307.80 C133.44,309.93 134.19,309.97 175.77,309.98 L 218.03 310.00 L 223.27 306.64 ZM 470.39 262.25 C470.42,256.06 470.79,251.00 471.22,251.00 C471.65,251.00 472.00,251.37 472.00,251.82 C472.00,253.67 479.93,257.00 484.35,257.00 C491.06,257.00 495.41,254.54 498.17,249.17 C500.20,245.22 500.50,243.19 500.50,233.57 C500.50,223.71 500.24,222.04 498.10,218.31 C495.61,213.97 492.66,212.16 487.50,211.83 C480.16,211.35 477.18,212.03 474.14,214.87 C470.79,217.99 470.00,217.89 470.00,214.33 C470.00,212.32 469.51,212.00 466.38,212.00 C462.85,212.00 462.77,212.08 463.38,215.12 C463.72,216.84 464.00,230.82 464.00,246.19 L 464.00 274.13 L 467.17 273.81 L 470.33 273.50 L 470.39 262.25 ZM 392.73 255.47 C397.79,253.35 402.81,249.36 405.08,245.63 C407.51,241.65 407.50,241.55 404.44,240.15 C402.07,239.07 401.53,239.35 397.08,243.92 C389.77,251.42 382.19,252.69 372.89,247.94 C365.67,244.26 362.00,237.19 362.00,226.96 C362.00,212.33 369.84,203.97 383.50,204.03 C388.81,204.05 395.42,207.16 397.62,210.67 C398.60,212.22 399.50,213.66 399.63,213.85 C399.75,214.04 401.24,213.89 402.93,213.52 C407.32,212.55 406.92,209.53 401.71,204.55 C396.69,199.74 391.69,198.00 382.88,198.01 C374.76,198.01 369.57,199.47 364.40,203.18 C359.29,206.85 356.53,211.69 354.95,219.78 C351.59,237.00 358.95,251.79 372.99,256.07 C377.45,257.42 388.88,257.08 392.73,255.47 ZM 439.93 252.57 L 443.89 248.70 L 444.56 251.38 C445.70,255.92 451.38,258.33 456.42,256.39 C458.53,255.58 458.43,253.09 456.25,252.32 C451.39,250.59 451.00,249.39 450.92,235.60 C450.83,220.27 449.77,216.36 444.91,213.51 C439.98,210.61 426.49,210.80 422.24,213.83 C419.88,215.51 415.49,221.99 416.31,222.60 C416.42,222.67 418.19,223.04 420.25,223.41 C423.19,223.94 424.00,223.77 424.00,222.62 C424.00,219.79 428.98,217.00 434.02,217.00 C440.00,217.00 442.63,219.13 443.50,224.66 L 444.15 228.83 L 437.32 229.45 C422.73,230.78 421.77,231.03 418.31,234.49 C415.04,237.76 414.53,239.63 414.99,246.50 C415.25,250.26 417.70,254.52 420.42,255.91 C421.56,256.49 425.53,256.85 429.23,256.70 C435.55,256.45 436.22,256.19 439.93,252.57 ZM 517.77 234.25 L 518.04 212.00 L 514.02 212.00 L 510.00 212.00 L 510.00 233.92 C510.00,257.27 509.96,257.08 515.00,256.69 L 517.50 256.50 L 517.77 234.25 ZM 545.83 253.62 C546.13,250.95 545.96,250.79 543.48,251.41 C541.44,251.93 540.36,251.57 538.90,249.89 C537.22,247.94 537.00,246.01 537.00,232.85 L 537.00 218.00 L 541.00 218.00 C544.76,218.00 545.00,217.82 545.00,215.06 C545.00,212.39 544.66,212.09 541.25,211.81 C537.54,211.50 537.50,211.45 537.20,206.75 C536.92,202.49 536.64,202.00 534.49,202.00 C532.49,202.00 531.99,202.63 531.47,205.75 C530.50,211.59 530.23,212.00 527.46,212.00 C525.22,212.00 524.91,212.37 525.18,214.75 C525.41,216.69 526.14,217.59 527.69,217.81 C529.83,218.12 529.88,218.50 530.19,235.65 C530.49,252.81 530.55,253.22 532.92,255.14 C534.76,256.62 536.55,257.02 540.42,256.80 C545.19,256.52 545.52,256.33 545.83,253.62 ZM 571.49 256.01 C572.93,255.46 575.42,253.57 577.03,251.80 L 579.96 248.59 L 581.09 251.82 C582.42,255.65 584.60,257.00 589.47,257.00 C593.68,257.00 595.53,254.31 592.52,252.56 C587.23,249.51 587.00,248.78 587.00,234.97 C587.00,214.79 584.70,211.58 570.35,211.66 C561.24,211.71 556.67,213.56 554.02,218.26 C552.33,221.29 553.03,222.39 557.27,223.39 C559.58,223.94 560.18,223.65 560.97,221.58 C562.21,218.32 564.91,217.00 570.32,217.00 C576.14,217.00 578.96,219.30 579.67,224.61 L 580.22 228.70 L 576.36 229.34 C574.24,229.69 570.47,229.99 568.00,229.99 C561.22,230.02 556.41,231.72 553.56,235.11 C551.46,237.61 551.00,239.19 551.00,243.94 C551.00,250.16 553.20,254.33 557.39,256.02 C560.33,257.21 568.35,257.20 571.49,256.01 ZM 606.76 226.25 L 607.03 196.00 L 603.01 196.00 L 599.00 196.00 L 599.00 225.30 C599.00,256.67 599.11,257.36 603.99,256.79 L 606.50 256.50 L 606.76 226.25 ZM 517.81 199.25 C518.12,196.07 518.05,196.00 514.06,196.00 C510.27,196.00 510.00,196.19 510.00,198.83 C510.00,202.49 510.76,203.16 514.46,202.80 C517.08,202.54 517.54,202.05 517.81,199.25 ZM 393.10 129.28 C400.33,126.94 406.09,121.21 408.96,113.50 C411.86,105.71 411.50,93.00 408.19,85.84 C402.52,73.60 387.63,68.32 371.88,72.96 C364.21,75.21 358.12,81.47 355.21,90.07 C352.57,97.86 353.90,110.55 358.19,118.50 C363.77,128.84 379.46,133.68 393.10,129.28 ZM 440.97 129.01 C443.12,127.92 445.56,126.04 446.41,124.82 C447.26,123.61 448.08,122.82 448.23,123.06 C448.38,123.30 449.18,124.83 450.02,126.46 C451.60,129.55 456.19,131.29 460.07,130.27 C462.18,129.72 462.77,126.01 460.75,125.98 C456.98,125.94 456.51,124.32 455.93,109.29 C455.58,100.10 454.86,93.46 454.03,91.76 C451.33,86.24 441.44,83.69 431.50,85.96 C427.44,86.89 420.58,93.25 421.30,95.41 C421.49,95.98 423.11,96.75 424.90,97.11 C427.41,97.63 428.28,97.41 428.73,96.14 C430.17,92.04 432.18,91.00 438.63,91.00 C444.10,91.00 445.15,91.31 446.44,93.27 C447.26,94.52 448.06,97.11 448.22,99.02 L 448.50 102.50 L 440.00 103.14 C435.33,103.49 429.72,104.39 427.54,105.14 C418.96,108.09 416.01,119.52 422.05,126.40 C423.72,128.31 426.09,130.07 427.30,130.30 C432.54,131.32 437.35,130.86 440.97,129.01 ZM 536.41 128.96 C545.88,124.20 545.63,110.60 536.00,106.80 C534.62,106.26 530.43,105.00 526.69,104.01 C519.07,101.98 516.00,99.80 516.00,96.40 C516.00,92.90 519.62,91.00 526.28,91.00 C531.47,91.00 532.41,91.33 534.82,93.97 C536.82,96.16 538.12,96.78 539.77,96.35 C544.83,95.03 540.50,88.06 533.38,86.09 C520.76,82.59 509.00,87.85 509.00,97.00 C509.00,103.00 512.64,106.55 521.34,109.06 C531.60,112.01 534.88,113.65 536.16,116.45 C540.04,124.98 521.26,129.23 514.98,121.25 C513.48,119.34 512.45,118.92 510.52,119.41 C505.55,120.65 508.53,126.11 516.01,129.46 C520.30,131.39 532.16,131.10 536.41,128.96 ZM 568.42 130.39 C569.29,130.06 570.00,128.71 570.00,127.39 C570.00,125.49 569.47,125.00 567.43,125.00 C566.02,125.00 564.00,124.53 562.93,123.96 C561.15,123.01 561.00,121.73 561.00,106.96 L 561.00 91.00 L 565.00 91.00 C568.57,91.00 569.00,90.74 569.00,88.56 C569.00,86.46 568.47,86.08 565.25,85.81 C561.53,85.50 561.50,85.46 561.19,80.69 C560.90,76.15 560.74,75.90 558.27,76.19 C556.08,76.45 555.48,77.23 554.58,81.00 C553.66,84.84 553.10,85.55 550.75,85.82 C548.59,86.06 548.00,86.65 548.00,88.57 C548.00,90.50 548.52,91.00 550.50,91.00 L 553.00 91.00 L 553.00 106.75 C553.00,127.54 554.39,130.53 564.17,130.90 C565.64,130.96 567.55,130.73 568.42,130.39 ZM 605.71 127.36 C611.33,122.85 612.44,119.89 612.80,108.50 C613.07,99.66 612.84,97.98 610.80,94.02 C607.50,87.61 603.35,85.50 594.00,85.50 C588.24,85.50 585.69,85.98 583.00,87.55 C577.83,90.58 574.77,96.84 574.22,105.53 C573.59,115.28 575.76,121.78 581.19,126.43 C585.91,130.47 587.39,130.90 595.71,130.62 C600.97,130.44 602.51,129.94 605.71,127.36 ZM 694.83 130.38 C698.29,129.69 706.00,123.56 706.00,121.50 C706.00,120.76 704.71,119.88 703.13,119.53 C700.80,119.02 699.69,119.46 697.28,121.88 C695.64,123.51 692.77,125.14 690.90,125.49 C683.41,126.88 675.65,120.32 676.23,113.10 L 676.50 109.70 L 691.65 109.91 C701.62,110.05 707.03,109.76 707.47,109.05 C708.47,107.43 706.08,97.01 703.73,92.79 C700.87,87.62 696.13,85.50 687.50,85.50 C678.27,85.50 674.46,87.65 670.75,94.95 C668.50,99.37 668.00,101.68 668.00,107.60 C668.00,124.65 678.58,133.63 694.83,130.38 ZM 476.00 122.17 C476.00,115.27 476.27,114.09 478.34,112.15 L 480.67 109.96 L 485.59 116.19 C488.29,119.62 491.74,124.13 493.26,126.22 C495.65,129.50 496.54,130.00 500.01,130.00 C502.20,130.00 504.00,129.75 504.00,129.45 C504.00,129.15 499.87,123.51 494.81,116.92 L 485.62 104.93 L 492.60 97.71 C496.44,93.75 500.37,89.54 501.33,88.37 C503.08,86.26 503.06,86.25 498.74,86.38 C494.57,86.52 494.05,86.91 485.45,96.41 L 476.50 106.31 L 476.23 87.65 L 475.96 69.00 L 471.98 69.00 L 468.00 69.00 L 468.00 99.50 L 468.00 130.00 L 472.00 130.00 L 476.00 130.00 L 476.00 122.17 ZM 631.00 113.16 L 631.50 96.83 L 634.77 93.91 C638.87,90.26 645.81,89.81 649.00,93.00 C650.85,94.85 651.00,96.33 651.00,112.50 L 651.00 130.00 L 655.00 130.00 L 659.00 130.00 L 658.98 114.25 C658.95,96.44 658.18,91.72 654.72,88.27 C650.06,83.61 639.35,84.00 633.97,89.03 C632.22,90.66 630.61,92.00 630.39,92.00 C630.18,92.00 630.00,90.74 630.00,89.20 C630.00,86.67 629.67,86.40 626.50,86.40 L 623.00 86.40 L 623.00 107.53 C623.00,119.16 623.32,128.99 623.71,129.38 C624.11,129.77 625.79,129.96 627.46,129.80 L 630.50 129.50 L 631.00 113.16 ZM 163.00 244.11 C131.53,236.87 110.70,218.22 100.87,188.50 C98.94,182.65 98.55,179.36 98.53,168.50 C98.49,152.54 99.79,146.56 106.16,133.22 C111.90,121.19 120.59,111.23 132.03,103.55 C138.48,99.22 148.56,94.43 153.48,93.35 C170.64,89.60 179.99,89.30 192.98,92.09 C215.11,96.83 235.02,112.86 245.68,134.50 C257.08,157.65 255.03,187.54 240.55,209.37 C236.22,215.87 224.11,227.92 217.45,232.32 C211.52,236.25 201.52,240.76 194.56,242.66 C188.53,244.30 167.96,245.25 163.00,244.11 ZM 479.39 251.35 C478.23,251.10 476.04,249.61 474.53,248.03 C472.28,245.69 471.69,243.98 471.26,238.68 C470.13,224.55 473.06,218.20 481.14,217.29 C489.92,216.30 493.00,220.64 493.00,234.00 C493.00,242.14 491.59,247.44 488.81,249.74 C487.06,251.20 482.40,251.99 479.39,251.35 ZM 427.50 251.26 C424.10,250.47 422.00,247.86 422.00,244.43 C422.00,237.35 424.85,235.41 436.00,234.86 L 443.50 234.50 L 443.32 238.68 C443.22,240.98 442.36,244.04 441.42,245.48 C438.78,249.51 432.04,252.30 427.50,251.26 ZM 562.85 250.87 C559.46,249.63 557.48,245.07 558.71,241.36 C560.17,236.98 563.65,235.26 572.38,234.60 L 580.26 234.00 L 579.75 238.49 C579.09,244.41 576.75,247.76 571.67,250.06 C566.98,252.19 566.56,252.23 562.85,250.87 ZM 379.50 124.56 C378.95,124.35 377.27,123.90 375.77,123.57 C372.05,122.75 366.31,117.53 363.87,112.75 C362.40,109.87 361.85,106.80 361.83,101.35 C361.77,85.58 368.56,78.00 382.73,78.00 C391.35,78.00 395.50,80.11 399.50,86.53 C402.28,90.98 402.51,92.09 402.64,101.33 C402.71,106.83 402.37,111.81 401.87,112.41 C401.37,113.01 399.96,115.05 398.73,116.95 C397.50,118.84 395.14,121.18 393.50,122.13 C390.63,123.80 381.60,125.36 379.50,124.56 ZM 430.38 124.09 C426.85,121.94 425.54,118.33 426.95,114.62 C428.44,110.72 431.97,109.06 440.30,108.36 C449.13,107.61 450.01,108.34 447.97,114.71 C446.46,119.43 443.46,122.85 439.28,124.63 C435.08,126.42 434.10,126.36 430.38,124.09 ZM 588.19 123.97 C583.73,121.26 582.00,116.64 582.00,107.48 C582.00,95.64 585.33,90.97 593.89,90.78 C597.99,90.68 599.51,91.13 601.52,93.01 C604.85,96.14 606.32,102.06 605.76,110.01 C605.22,117.74 603.04,122.41 599.03,124.48 C595.08,126.53 592.15,126.39 588.19,123.97 ZM 676.00 101.45 C676.00,97.69 678.74,93.05 681.61,91.96 C683.00,91.43 686.27,91.00 688.89,91.00 C694.04,91.00 696.46,92.78 698.81,98.30 C701.21,103.92 701.06,104.00 688.00,104.00 L 676.00 104.00 L 676.00 101.45 Z" fill="rgb(254,254,254)"/>
</g>
</svg>